Coordinates
version=1
nRows=11
nColumns=35
inDegrees=yes

Units are S.I. units (second, meters, Newtons, ...)
If the header above contains a line with 'inDegrees', this indicates whether rotational values are in degrees (yes) or radians (no).

endheader
time	sternoclavicular_r2	sternoclavicular_r3	unrotscap_r3	unrotscap_r2	acromioclavicular_r2	acromioclavicular_r3	acromioclavicular_r1	unrothum_r1	unrothum_r3	unrothum_r2	elv_angle	shoulder_elv	shoulder1_r2	shoulder_rot	elbow_flexion	pro_sup	deviation	flexion	proximal_distal_r1	proximal_distal_r3	cmc_flexion	cmc_abduction	mp_flexion	ip_flexion	2mcp_flexion	2mcp_abduction	2pm_flexion	2md_flexion	FPLpt_tx	FPLpt_ty	FPLpt_tz	FPLpt2_tx	FPLpt2_ty	FPLpt2_tz
      0.00000000	     -6.63748566	      2.81132566	     -2.81132566	      6.63748566	     -1.34395583	     10.86137828	      4.88211478	     -4.88211478	    -10.86137828	      1.34395583	     16.17285803	     27.42756524	    -16.17285803	      7.48978558	     78.67327002	     41.82707638	      0.22825637	      0.04061318	     15.30547958	      1.16348187	      3.36700001	     10.93636052	    -27.65299999	    -34.18399999	     -1.26827392	      7.65299997	     26.93900001	     34.89800000	     -0.00005496	     -0.00016487	     -0.00009274	      0.00004241	     -0.00007788	     -0.00009345
      0.01000000	     -6.63762709	      2.81138556	     -2.81138556	      6.63762709	     -1.34398447	     10.86160971	      4.88221881	     -4.88221881	    -10.86160971	      1.34398447	     16.19092581	     27.42814966	    -16.19092581	      7.47760325	     78.68260251	     41.92705892	      0.22848668	      0.04202718	     15.31849410	      1.20399001	      3.36700001	     10.99782763	    -27.65299999	    -34.18399999	     -0.92548527	      7.65299997	     26.93900001	     34.89800000	     -0.00005692	     -0.00017076	     -0.00009605	      0.00004241	     -0.00007788	     -0.00009345
      0.02000000	     -6.63976565	      2.81229135	     -2.81229135	      6.63976565	     -1.34441748	     10.86510917	      4.88379180	     -4.88379180	    -10.86510917	      1.34441748	     16.15436667	     27.43698664	    -16.15436667	      7.41107219	     78.67351733	     41.92584915	      0.22853470	      0.04186126	     15.32115937	      1.19923690	      3.36700001	     11.00061733	    -27.65299999	    -34.18399999	     -0.92841386	      7.65299997	     26.93900001	     34.89800000	     -0.00005670	     -0.00017010	     -0.00009568	      0.00004241	     -0.00007788	     -0.00009345
      0.03000000	     -6.63468536	      2.81013958	     -2.81013958	      6.63468536	     -1.34338883	     10.85679594	      4.88005506	     -4.88005506	    -10.85679594	      1.34338883	     16.07231408	     27.41599376	    -16.07231408	      7.45474317	     78.69688753	     41.77477737	      0.23006119	      0.03385799	     15.40705898	      0.96995997	      3.36700001	     11.60165151	    -27.65299999	    -34.18399999	     -0.36447260	      7.65299997	     26.93900001	     34.89800000	     -0.00004556	     -0.00013668	     -0.00007688	      0.00004241	     -0.00007788	     -0.00009345
      0.04000000	     -6.63867071	      2.81182758	     -2.81182758	      6.63867071	     -1.34419578	     10.86331745	      4.88298643	     -4.88298643	    -10.86331745	      1.34419578	     16.07725152	     27.43246211	    -16.07725152	      7.48443944	     78.68313793	     41.74741111	      0.22951157	      0.03410808	     15.37618853	      0.97712448	      3.36700001	     11.54228454	    -27.65299999	    -34.18399999	     -0.34241649	      7.65299997	     26.93900001	     34.89800000	     -0.00004591	     -0.00013774	     -0.00007748	      0.00004241	     -0.00007788	     -0.00009345
      0.05000000	     -6.63848859	      2.81175045	     -2.81175045	      6.63848859	     -1.34415890	     10.86301943	      4.88285247	     -4.88285247	    -10.86301943	      1.34415890	     16.07981537	     27.43170954	    -16.07981537	      7.48169186	     78.67651242	     41.71493789	      0.22869600	      0.03455495	     15.33024633	      0.98992641	      3.36700001	     11.46157317	    -27.65299999	    -34.18399999	     -0.30663719	      7.65299997	     26.93900001	     34.89800000	     -0.00004653	     -0.00013960	     -0.00007853	      0.00004241	     -0.00007788	     -0.00009345
      0.06000000	     -6.63836885	      2.81169973	     -2.81169973	      6.63836885	     -1.34413466	     10.86282349	      4.88276440	     -4.88276440	    -10.86282349	      1.34413466	     16.12750626	     27.43121474	    -16.12750626	      7.48933163	     78.64971862	     41.74496330	      0.22614884	      0.03447578	     15.18653972	      0.98765846	      3.36700001	     11.56663331	    -27.65299999	    -34.18399999	     -0.20856103	      7.65299997	     26.93900001	     34.89800000	     -0.00004642	     -0.00013927	     -0.00007834	      0.00004241	     -0.00007788	     -0.00009345
      0.07000000	     -6.64297014	      2.81364862	     -2.81364862	      6.64297014	     -1.34506633	     10.87035291	      4.88614882	     -4.88614882	    -10.87035291	      1.34506633	     16.12574729	     27.45022832	    -16.12574729	      7.49157494	     78.64917550	     41.73336325	      0.22584609	      0.03440698	     15.16940921	      0.98568748	      3.36700001	     11.52638128	    -27.65299999	    -34.18399999	     -0.20199275	      7.65299997	     26.93900001	     34.89800000	     -0.00004633	     -0.00013899	     -0.00007818	      0.00004241	     -0.00007788	     -0.00009345
      0.08000000	     -6.63747894	      2.81132281	     -2.81132281	      6.63747894	     -1.34395447	     10.86136727	      4.88210984	     -4.88210984	    -10.86136727	      1.34395447	     16.11958974	     27.42753745	    -16.11958974	      7.47053080	     78.65624113	     41.72258768	      0.22548307	      0.03424045	     15.14885517	      0.98091673	      3.36700001	     11.46451656	    -27.65299999	    -34.18399999	     -0.19598818	      7.65299997	     26.93900001	     34.89800000	     -0.00004610	     -0.00013830	     -0.00007779	      0.00004241	     -0.00007788	     -0.00009345
      0.09000000	     -6.63787055	      2.81148868	     -2.81148868	      6.63787055	     -1.34403376	     10.86200810	      4.88239789	     -4.88239789	    -10.86200810	      1.34403376	     16.11782326	     27.42915569	    -16.11782326	      7.49948821	     78.67008407	     41.70314925	      0.22890998	      0.03302723	     15.34229006	      0.94616034	      3.36700001	     11.68621615	    -27.65299999	    -34.18399999	     -0.19515475	      7.65299997	     26.93900001	     34.89800000	     -0.00004442	     -0.00013327	     -0.00007496	      0.00004241	     -0.00007788	     -0.00009345
      0.10000000	     -6.64091804	      2.81277945	     -2.81277945	      6.64091804	     -1.34465082	     10.86699491	      4.88463942	     -4.88463942	    -10.86699491	      1.34465082	     16.04569110	     27.44174857	    -16.04569110	      7.45982730	     78.66242063	     41.47182184	      0.22838880	      0.03578677	     15.31294087	      1.02521553	      3.36700001	     11.67808284	    -27.65299999	    -34.18399999	     -0.55193983	      7.65299997	     26.93900001	     34.89800000	     -0.00004824	     -0.00014472	     -0.00008140	      0.00004241	     -0.00007788	     -0.00009345
